<svg width="24" height="24" viewBox="0 0 24 24" fill="none" xmlns="http://www.w3.org/2000/svg">
<g id="Frame 2">
<path id="Subtract" fill-rule="evenodd" clip-rule="evenodd" d="M8 0C3.58172 0 0 3.58172 0 8V16C0 20.4183 3.58172 24 8 24H16C20.4183 24 24 20.4183 24 16V8C24 3.58172 20.4183 0 16 0H8ZM9.5 3H14.5C18.0899 3 21 5.91015 21 9.5V14.5C21 18.0899 18.0899 21 14.5 21H9.5C5.91015 21 3 18.0899 3 14.5V9.5C3 5.91015 5.91015 3 9.5 3ZM1.5 9.5C1.5 5.08172 5.08172 1.5 9.5 1.5H14.5C18.9183 1.5 22.5 5.08172 22.5 9.5V14.5C22.5 18.9183 18.9183 22.5 14.5 22.5H9.5C5.08172 22.5 1.5 18.9183 1.5 14.5V9.5Z" fill="url(#paint0_linear_62_17498)"/>
<g id="Group">
<path id="Vector" d="M14.1723 13.7682L14.1724 13.7682L13.9111 13.2276L13.3856 13.9684L13.3836 13.9711L13.3836 13.9711C13.2025 14.2223 12.915 14.3754 12.5993 14.3754H12.5712H12.5462L12.5215 14.3725L12.4616 14.3656L12.4521 14.3645L12.4427 14.363C12.0876 14.306 11.7886 14.0496 11.6794 13.7029L11.6793 13.7027L11.1226 11.9318L10.2943 14.9639L10.2941 14.9647C10.2016 15.3007 9.93563 15.5544 9.60585 15.6376L11.6538 17.6466C11.6538 17.6466 11.6538 17.6466 11.6539 17.6466C11.7681 17.7587 11.9206 17.816 12.0751 17.816C12.2339 17.816 12.3861 17.7582 12.4998 17.6468L14.1723 13.7682ZM14.1723 13.7682L14.1734 13.7703C14.3336 14.0971 14.6703 14.3098 15.0375 14.3098H15.8985L12.4999 17.6466L14.1723 13.7682ZM7.54357 12.7602L8.11124 14.1714L7.2611 13.3374L7.54357 12.7602Z" fill="#FFEDD5" stroke="#FFEDD5" stroke-width="0.866765"/>
<path id="Vector_2" d="M6.70418 9.95991L6.70412 9.96002L5.83927 11.7259C5.47315 11.1575 5.27832 10.4977 5.27832 9.80718C5.27832 8.84429 5.65675 7.94128 6.35202 7.26225L6.35203 7.26225L6.35282 7.26147C7.05011 6.57744 7.976 6.2 8.96506 6.2C9.9504 6.2 10.8764 6.57728 11.5738 7.26147L11.7251 7.40988L12.0712 7.74944L12.4212 7.41388L12.5761 7.26547L12.5761 7.2655L12.5806 7.26109C14.0148 5.8511 16.3594 5.85056 17.7976 7.26147L17.7984 7.26225C18.4945 7.94205 18.8757 8.84539 18.8757 9.80718C18.8757 10.7637 18.4986 11.6625 17.8098 12.341H15.6862L14.9992 10.9124L14.9992 10.9124L14.9978 10.9096C14.8427 10.592 14.5264 10.3667 14.1687 10.3375L14.1321 10.3342L14.1099 10.3323H14.0877H14.0666C13.7252 10.3323 13.4229 10.4992 13.2318 10.7642L13.23 10.7666L12.9579 11.1489L12.0395 8.22792C12.0393 8.22731 12.0391 8.2267 12.0389 8.22609C11.9035 7.78845 11.4974 7.509 11.0479 7.509V7.50895L11.0405 7.50906C10.5855 7.51582 10.191 7.82399 10.0676 8.25431L10.0676 8.2543L10.066 8.26038L9.18018 11.5039L8.58451 10.0243L8.58452 10.0243L8.58367 10.0222C8.43763 9.66406 8.09056 9.40849 7.7117 9.38765L7.68315 9.3851L7.66096 9.38312H7.63868H7.61758C7.22421 9.38312 6.87207 9.61732 6.70418 9.95991Z" stroke="#FFEDD5"/>
<g id="Vector_3">
<mask id="path-4-inside-1_62_17498" fill="white">
<path d="M18.548 13.1853H15.1499L14.2302 11.2779C14.2034 11.2223 14.1484 11.1849 14.0859 11.1798C14.0185 11.1721 13.9625 11.2026 13.9268 11.2529L12.6596 13.0339L11.2266 8.47495C11.2035 8.40147 11.1335 8.35007 11.0555 8.35328C10.9768 8.35479 10.9091 8.40687 10.8885 8.48119L9.33343 14.1678L7.79177 10.3392C7.766 10.2753 7.7045 10.2325 7.63441 10.2302C7.56604 10.2222 7.50007 10.2661 7.46949 10.3279L5.95636 13.4226H4.17591C4.07868 13.4226 4 13.4997 4 13.5951C4 13.6905 4.07868 13.7677 4.17591 13.7677H6.06699C6.13468 13.7677 6.19618 13.7296 6.22572 13.6698L7.61277 10.8335L9.20183 14.7802C9.22829 14.8464 9.29357 14.8894 9.36538 14.8894C9.36881 14.8894 9.37191 14.8892 9.37534 14.8891C9.45127 14.8849 9.51552 14.8335 9.53545 14.7615L11.0702 9.14889L12.4298 13.4734C12.4494 13.5365 12.5043 13.5828 12.5707 13.5931C12.6373 13.6041 12.7036 13.5752 12.7421 13.5213L14.0419 11.6945L14.8795 13.4317C14.9087 13.492 14.9706 13.5304 15.0386 13.5304H18.548V13.1853Z"/>
</mask>
<path d="M18.548 13.1853H15.1499L14.2302 11.2779C14.2034 11.2223 14.1484 11.1849 14.0859 11.1798C14.0185 11.1721 13.9625 11.2026 13.9268 11.2529L12.6596 13.0339L11.2266 8.47495C11.2035 8.40147 11.1335 8.35007 11.0555 8.35328C10.9768 8.35479 10.9091 8.40687 10.8885 8.48119L9.33343 14.1678L7.79177 10.3392C7.766 10.2753 7.7045 10.2325 7.63441 10.2302C7.56604 10.2222 7.50007 10.2661 7.46949 10.3279L5.95636 13.4226H4.17591C4.07868 13.4226 4 13.4997 4 13.5951C4 13.6905 4.07868 13.7677 4.17591 13.7677H6.06699C6.13468 13.7677 6.19618 13.7296 6.22572 13.6698L7.61277 10.8335L9.20183 14.7802C9.22829 14.8464 9.29357 14.8894 9.36538 14.8894C9.36881 14.8894 9.37191 14.8892 9.37534 14.8891C9.45127 14.8849 9.51552 14.8335 9.53545 14.7615L11.0702 9.14889L12.4298 13.4734C12.4494 13.5365 12.5043 13.5828 12.5707 13.5931C12.6373 13.6041 12.7036 13.5752 12.7421 13.5213L14.0419 11.6945L14.8795 13.4317C14.9087 13.492 14.9706 13.5304 15.0386 13.5304H18.548V13.1853Z" fill="#FFEDD5"/>
<path d="M18.548 13.1853H19.333V12.4003H18.548V13.1853ZM15.1499 13.1853L14.4428 13.5262L14.657 13.9703H15.1499V13.1853ZM14.2302 11.2779L13.523 11.6187L13.5231 11.6188L14.2302 11.2779ZM14.0859 11.1798L13.9961 11.9596L14.0093 11.9612L14.0226 11.9622L14.0859 11.1798ZM13.9268 11.2529L14.5664 11.708L14.5671 11.707L13.9268 11.2529ZM12.6596 13.0339L11.9108 13.2693L12.3841 14.7752L13.2993 13.489L12.6596 13.0339ZM11.2266 8.47495L10.4775 8.70964L10.4777 8.71035L11.2266 8.47495ZM11.0555 8.35328L11.0706 9.13812L11.0791 9.13796L11.0877 9.13761L11.0555 8.35328ZM10.8885 8.48119L10.132 8.27137L10.1313 8.27413L10.8885 8.48119ZM9.33343 14.1678L8.60525 14.461L9.47583 16.623L10.0906 14.3748L9.33343 14.1678ZM7.79177 10.3392L8.51995 10.046L8.51975 10.0455L7.79177 10.3392ZM7.63441 10.2302L7.54408 11.0099L7.57594 11.0136L7.608 11.0147L7.63441 10.2302ZM7.46949 10.3279L6.7658 9.97999L6.76428 9.98309L7.46949 10.3279ZM5.95636 13.4226V14.2075H6.44634L6.66157 13.7674L5.95636 13.4226ZM6.22572 13.6698L6.92956 14.0174L6.93091 14.0146L6.22572 13.6698ZM7.61277 10.8335L8.34095 10.5403L7.6823 8.90442L6.90758 10.4886L7.61277 10.8335ZM9.20183 14.7802L9.93082 14.489L9.93002 14.487L9.20183 14.7802ZM9.37534 14.8891L9.4138 15.6731L9.41883 15.6729L9.37534 14.8891ZM9.53545 14.7615L10.292 14.971L10.2926 14.9686L9.53545 14.7615ZM11.0702 9.14889L11.8191 8.91346L11.0178 6.36461L10.313 8.94183L11.0702 9.14889ZM12.4298 13.4734L13.1794 13.2405L13.1786 13.238L12.4298 13.4734ZM12.5707 13.5931L12.698 12.8185L12.6909 12.8174L12.5707 13.5931ZM12.7421 13.5213L13.3811 13.9773L13.3817 13.9764L12.7421 13.5213ZM14.0419 11.6945L14.749 11.3535L14.1721 10.1573L13.4023 11.2394L14.0419 11.6945ZM14.8795 13.4317L14.1724 13.7726L14.173 13.7737L14.8795 13.4317ZM18.548 13.5304V14.3154H19.333V13.5304H18.548ZM18.548 12.4003H15.1499V13.9703H18.548V12.4003ZM15.857 12.8443L14.9372 10.9369L13.5231 11.6188L14.4428 13.5262L15.857 12.8443ZM14.9373 10.9371C14.7874 10.626 14.4845 10.4245 14.1491 10.3974L14.0226 11.9622C13.8122 11.9452 13.6193 11.8186 13.523 11.6187L14.9373 10.9371ZM14.1756 10.4C13.7891 10.3555 13.4667 10.5447 13.2864 10.7989L14.5671 11.707C14.5164 11.7785 14.4403 11.8511 14.3352 11.9017C14.227 11.9539 14.1084 11.9726 13.9961 11.9596L14.1756 10.4ZM13.2871 10.7979L12.02 12.5789L13.2993 13.489L14.5664 11.708L13.2871 10.7979ZM13.4085 12.7985L11.9754 8.23955L10.4777 8.71035L11.9108 13.2693L13.4085 12.7985ZM11.9757 8.24027C11.8502 7.8398 11.4683 7.55067 11.0233 7.56894L11.0877 9.13761C10.7986 9.14948 10.5569 8.96315 10.4775 8.70964L11.9757 8.24027ZM11.0403 7.56843C10.6217 7.5765 10.2473 7.8557 10.132 8.27137L11.6449 8.69101C11.5708 8.95803 11.3318 9.13309 11.0706 9.13812L11.0403 7.56843ZM10.1313 8.27413L8.57623 13.9607L10.0906 14.3748L11.6457 8.68825L10.1313 8.27413ZM10.0616 13.8746L8.51995 10.046L7.0636 10.6324L8.60525 14.461L10.0616 13.8746ZM8.51975 10.0455C8.37596 9.68908 8.03633 9.45825 7.66082 9.44561L7.608 11.0147C7.37267 11.0068 7.15605 10.8616 7.06379 10.6329L8.51975 10.0455ZM7.72475 9.45038C7.26357 9.39695 6.91282 9.68264 6.76581 9.97999L8.17318 10.6758C8.08732 10.8495 7.86851 11.0475 7.54408 11.0099L7.72475 9.45038ZM6.76428 9.98309L5.25115 13.0777L6.66157 13.7674L8.1747 10.6727L6.76428 9.98309ZM5.95636 12.6376H4.17591V14.2075H5.95636V12.6376ZM4.17591 12.6376C3.65941 12.6376 3.21501 13.0521 3.21501 13.5951H4.78499C4.78499 13.9474 4.49795 14.2075 4.17591 14.2075V12.6376ZM3.21501 13.5951C3.21501 14.1382 3.65941 14.5527 4.17591 14.5527V12.9827C4.49795 12.9827 4.78499 13.2428 4.78499 13.5951H3.21501ZM4.17591 14.5527H6.06699V12.9827H4.17591V14.5527ZM6.06699 14.5527C6.42992 14.5527 6.76619 14.3482 6.92956 14.0174L5.52189 13.3222C5.62616 13.1111 5.83944 12.9827 6.06699 12.9827V14.5527ZM6.93091 14.0146L8.31795 11.1783L6.90758 10.4886L5.52054 13.3249L6.93091 14.0146ZM6.88458 11.1267L8.47365 15.0734L9.93002 14.487L8.34095 10.5403L6.88458 11.1267ZM8.47285 15.0714C8.62239 15.4458 8.98327 15.6744 9.36538 15.6744V14.1044C9.60387 14.1044 9.83419 14.2471 9.93082 14.489L8.47285 15.0714ZM9.36538 15.6744C9.38006 15.6744 9.39227 15.674 9.40072 15.6737C9.40481 15.6736 9.4082 15.6734 9.41027 15.6733C9.41131 15.6732 9.41222 15.6732 9.41276 15.6732C9.41353 15.6731 9.41351 15.6731 9.4138 15.6731L9.33688 14.105C9.33632 14.105 9.33545 14.1051 9.33537 14.1051C9.33508 14.1051 9.33515 14.1051 9.33537 14.1051C9.33578 14.1051 9.33755 14.105 9.34 14.1049C9.34518 14.1047 9.35414 14.1044 9.36538 14.1044V15.6744ZM9.41883 15.6729C9.82497 15.6503 10.1806 15.3733 10.292 14.971L8.77893 14.552C8.85049 14.2936 9.07757 14.1194 9.33185 14.1053L9.41883 15.6729ZM10.2926 14.9686L11.8274 9.35595L10.313 8.94183L8.77826 14.5544L10.2926 14.9686ZM10.3214 9.38432L11.6809 13.7089L13.1786 13.238L11.8191 8.91346L10.3214 9.38432ZM11.6801 13.7064C11.7918 14.0657 12.0984 14.3143 12.4504 14.3688L12.6909 12.8174C12.9103 12.8514 13.107 13.0073 13.1794 13.2405L11.6801 13.7064ZM12.4434 14.3677C12.8129 14.4284 13.1733 14.2685 13.3811 13.9773L12.1031 13.0654C12.234 12.882 12.4618 12.7797 12.698 12.8185L12.4434 14.3677ZM13.3817 13.9764L14.6815 12.1496L13.4023 11.2394L12.1025 13.0662L13.3817 13.9764ZM13.3348 12.0354L14.1724 13.7726L15.5866 13.0907L14.749 11.3535L13.3348 12.0354ZM14.173 13.7737C14.3356 14.1097 14.675 14.3154 15.0386 14.3154V12.7454C15.2662 12.7454 15.4819 12.8743 15.5861 13.0896L14.173 13.7737ZM15.0386 14.3154H18.548V12.7454H15.0386V14.3154ZM19.333 13.5304V13.1853H17.763V13.5304H19.333Z" fill="#FFEDD5" mask="url(#path-4-inside-1_62_17498)"/>
</g>
<path id="Vector_4" d="M18.7854 13.5446V13.5446C18.7389 13.5442 18.6941 13.5258 18.6608 13.4929C18.6275 13.46 18.6085 13.4151 18.6085 13.3681C18.6085 13.321 18.6275 13.2762 18.6608 13.2432C18.6941 13.2103 18.7389 13.1919 18.7854 13.1915L18.7861 13.1915V13.1915H18.9476V13.0346V13.0339L18.9477 13.0339C18.9481 12.9868 18.9674 12.9422 19.001 12.9095C19.0345 12.8769 19.0795 12.8589 19.126 12.8589C19.1726 12.8589 19.2176 12.8769 19.2511 12.9095C19.2846 12.9422 19.304 12.9868 19.3044 13.0339L19.3044 13.0346H19.3044V13.1915H19.4657H19.4659V13.2728C19.4788 13.2727 19.4915 13.2751 19.5034 13.2798C19.5152 13.2846 19.526 13.2916 19.5351 13.3004C19.5442 13.3093 19.5515 13.3198 19.5564 13.3314C19.5613 13.343 19.5639 13.3555 19.5639 13.3681C19.5639 13.3806 19.5613 13.3931 19.5564 13.4047C19.5515 13.4163 19.5442 13.4269 19.5351 13.4357C19.526 13.4446 19.5152 13.4516 19.5034 13.4563C19.4915 13.4611 19.4788 13.4634 19.4659 13.4633L18.7854 13.5446ZM18.7854 13.5446H18.7861H18.9476V13.7012L18.7854 13.5446ZM19.126 12.5106L19.1259 12.5919C19.3366 12.5922 19.5383 12.6744 19.6868 12.8201C19.8353 12.9658 19.9185 13.1629 19.9188 13.3682C19.9188 13.5213 19.8725 13.6711 19.7856 13.7987C19.6987 13.9263 19.575 14.026 19.4299 14.085C19.2849 14.1439 19.1252 14.1594 18.9711 14.1293C18.817 14.0992 18.6756 14.0251 18.5649 13.9164C18.4541 13.8077 18.3789 13.6695 18.3484 13.5192C18.3179 13.3689 18.3335 13.2132 18.3933 13.0715C18.4532 12.9299 18.5546 12.8086 18.685 12.7231C18.8154 12.6376 18.9689 12.5919 19.126 12.5919L19.126 12.5106ZM19.126 12.5106C19.3577 12.5109 19.5799 12.6014 19.7437 12.7621C19.9076 12.9229 19.9998 13.1408 20.0001 13.3681C20.0001 13.5377 19.9488 13.7034 19.8528 13.8444C19.7567 13.9855 19.6202 14.0954 19.4605 14.1603C19.3008 14.2252 19.1251 14.2421 18.9555 14.2091C18.7859 14.176 18.6302 14.0943 18.508 13.9744C18.3857 13.8545 18.3025 13.7017 18.2687 13.5353C18.235 13.369 18.2523 13.1966 18.3185 13.0399C18.3846 12.8832 18.4967 12.7493 18.6404 12.6551C18.7842 12.5609 18.9532 12.5106 19.126 12.5106ZM19.3044 13.5446H19.4657L19.0289 13.7015C19.0288 13.7141 19.0312 13.7266 19.0361 13.7382C19.0409 13.7499 19.048 13.7605 19.0571 13.7694C19.0661 13.7783 19.0768 13.7854 19.0887 13.7903C19.1005 13.7951 19.1132 13.7976 19.126 13.7976C19.1388 13.7976 19.1515 13.7951 19.1634 13.7903C19.1752 13.7854 19.186 13.7783 19.195 13.7694C19.204 13.7605 19.2112 13.7499 19.216 13.7382C19.2208 13.7266 19.2233 13.7141 19.2231 13.7015H19.3044V13.7012V13.5446Z" fill="#FFEDD5" stroke="#FFEDD5" stroke-width="0.162518"/>
</g>
</g>
<defs>
<linearGradient id="paint0_linear_62_17498" x1="-6.62069" y1="-13.0714" x2="31.7235" y2="-11.3528" gradientUnits="userSpaceOnUse">
<stop stop-color="#D84315"/>
<stop offset="1" stop-color="#FFC107"/>
</linearGradient>
</defs>
</svg>
